<svg xmlns="http://www.w3.org/2000/svg" fill="none" viewBox="0 0 2002 41" height="41" width="2002">
<path stroke="white" fill="white" d="M44.0498 1.16997C25.5268 -0.186745 1 20.838 1 20.838V40H2001V20.838C2001 20.838 1988.12 3.03164 1975.59 1.16997C1959.89 -1.16031 1956.19 21.2479 1940.32 20.838C1925.14 20.4461 1922.29 1.65451 1907.12 1.16997C1891.07 0.657547 1887.38 21.2433 1871.33 20.838C1855.98 20.4504 1852.97 1.46392 1837.62 1.16997C1821.74 0.865986 1818.23 21.0384 1802.35 20.838C1786.82 20.642 1783.64 1.36593 1768.12 1.16997C1752.24 0.969585 1748.72 21.0384 1732.85 20.838C1717.32 20.642 1714.14 0.965 1698.61 1.16997C1683.43 1.37035 1680.59 20.4461 1665.42 20.838C1649.55 21.2479 1646.02 0.865986 1630.15 1.16997C1614.8 1.46392 1611.79 20.7378 1596.44 20.838C1580.91 20.9393 1577.73 1.46069 1562.2 1.16997C1546.15 0.869396 1542.46 21.3504 1526.42 20.838C1511.24 20.3535 1508.4 1.4672 1493.22 1.16997C1477.52 0.862518 1474.17 20.9382 1458.47 20.838C1442.94 20.7389 1439.76 1.46069 1424.24 1.16997C1408.19 0.869396 1404.46 21.924 1388.45 20.838C1374.16 19.8689 1372.11 2.46922 1357.85 1.16997C1341.16 -0.350456 1336.73 21.6486 1319.98 20.838C1304.65 20.0956 1301.62 1.16997 1286.27 1.16997C1270.92 1.16997 1267.91 20.544 1252.56 20.838C1236.68 21.142 1233.16 0.865986 1217.29 1.16997C1201.94 1.46392 1198.93 20.7378 1183.57 20.838C1168.04 20.9393 1164.85 1.81959 1149.34 1.16997C1132.59 0.468628 1128.18 22.2333 1111.48 20.838C1097.04 19.6316 1094.82 2.04214 1080.36 1.16997C1064.33 0.203976 1060.61 21.3504 1044.57 20.838C1029.4 20.3535 1026.54 1.74509 1011.37 1.16997C995.155 0.555065 991.285 21.4529 975.066 20.838C959.897 20.2629 957.049 1.4672 941.871 1.16997C926.172 0.862518 922.82 21.1454 907.12 20.838C891.943 20.5408 889.095 1.74509 873.925 1.16997C857.707 0.555065 853.841 21.3446 837.618 20.838C822.272 20.3587 819.251 1.64923 803.905 1.16997C787.682 0.663334 783.805 21.6769 767.598 20.838C752.782 20.0712 750.264 1.75786 735.44 1.16997C719.575 0.540787 716.048 20.838 700.17 20.838C684.292 20.838 680.777 0.969585 664.9 1.16997C649.374 1.36593 646.193 21.149 630.668 20.838C615.663 20.5374 612.988 1.75142 597.992 1.16997C581.95 0.547993 578.255 21.1386 562.203 20.838C546.678 20.5473 543.498 1.36593 527.971 1.16997C512.094 0.969585 508.574 21.2479 492.701 20.838C477.526 20.4461 474.675 1.74509 459.506 1.16997C443.288 0.555065 439.413 21.5636 423.199 20.838C408.207 20.167 405.519 1.75142 390.523 1.16997C374.481 0.547993 370.776 21.46 354.734 20.838C339.738 20.2565 337.046 1.92851 322.058 1.16997C305.672 0.340668 301.596 22.0187 285.232 20.838C270.777 19.795 268.579 2.04214 254.112 1.16997C238.089 0.203976 234.377 21.0361 218.324 20.838C202.622 20.6442 199.275 1.26795 183.573 1.16997C167.695 1.07089 164.176 21.2479 148.303 20.838C133.128 20.4461 130.283 1.5619 115.108 1.16997C99.2353 0.760033 95.7161 20.7411 79.8382 20.838C63.7842 20.936 60.0587 2.34254 44.0498 1.16997Z"></path>
</svg>
