<svg xmlns="http://www.w3.org/2000/svg" width="31" height="31" viewBox="0 0 31 31" fill="none"><path d="M15.5 0L16.6247 6.23703L19.2094 0.450402L18.8088 6.77536L22.7032 1.77543L20.8006 7.82074L25.7784 3.89808L22.4844 9.3124L28.2563 6.695L23.7622 11.1637L29.9928 10.0036L24.5599 13.2669L30.887 13.6317L24.831 15.5L30.887 17.3683L24.5599 17.7331L29.9928 20.9964L23.7622 19.8363L28.2563 24.305L22.4844 21.6876L25.7784 27.1019L20.8006 23.1793L22.7032 29.2246L18.8088 24.2246L19.2094 30.5496L16.6247 24.763L15.5 31L14.3753 24.763L11.7906 30.5496L12.1912 24.2246L8.29679 29.2246L10.1994 23.1793L5.2216 27.1019L8.51565 21.6876L2.74375 24.305L7.23781 19.8363L1.00725 20.9964L6.44014 17.7331L0.113012 17.3683L6.169 15.5L0.113012 13.6317L6.44014 13.2669L1.00725 10.0036L7.23781 11.1637L2.74375 6.695L8.51565 9.3124L5.2216 3.89808L10.1994 7.82074L8.29679 1.77543L12.1912 6.77536L11.7906 0.450402L14.3753 6.23703L15.5 0Z" fill="#1A311F"/><script xmlns=""/></svg>